<svg xmlns="http://www.w3.org/2000/svg" version="1.1" xmlns:xlink="http://www.w3.org/1999/xlink" viewBox="0 0 200 200" width="200" height="200"><rect width="200" height="200" fill="url('#gradient')"></rect><defs><linearGradient id="gradient" gradientTransform="rotate(45 0.5 0.5)"><stop offset="0%" stop-color="#111111"></stop><stop offset="100%" stop-color="#000000"></stop></linearGradient></defs><g><g fill="#ffffff" transform="matrix(1.643757431629013,0,0,1.643757431629013,17.235251569549476,108.81996941084527)" stroke="#ffffff" stroke-width="0.55"><path d="M12.96-14.22L12.96 0L9.55 0L9.55-5.94L4.50-5.94L4.50 0L1.07 0L1.07-14.22L4.50-14.22L4.50-8.57L9.55-8.57L9.55-14.22L12.96-14.22ZM24.22 0L20.93 0Q20.75-0.32 20.62-0.95L20.62-0.95Q19.71 0.20 18.08 0.20L18.08 0.20Q16.58 0.20 15.54-0.71Q14.49-1.61 14.49-2.98L14.49-2.98Q14.49-4.70 15.76-5.58Q17.03-6.46 19.45-6.46L19.45-6.46L20.47-6.46L20.47-7.01Q20.47-8.47 19.21-8.47L19.21-8.47Q18.04-8.47 18.04-7.31L18.04-7.31L14.75-7.31Q14.75-8.85 16.05-9.80Q17.35-10.76 19.38-10.76Q21.40-10.76 22.57-9.78Q23.74-8.79 23.77-7.07L23.77-7.07L23.77-2.39Q23.79-0.94 24.22-0.17L24.22-0.17L24.22 0ZM18.87-2.15L18.87-2.15Q19.48-2.15 19.89-2.41Q20.29-2.68 20.47-3.01L20.47-3.01L20.47-4.70L19.51-4.70Q17.79-4.70 17.79-3.15L17.79-3.15Q17.79-2.71 18.10-2.43Q18.40-2.15 18.87-2.15ZM29.06-10.57L29.06 0L25.76 0L25.76-10.57L29.06-10.57ZM25.57-13.29L25.57-13.29Q25.57-13.99 26.07-14.44Q26.58-14.89 27.39-14.89Q28.20-14.89 28.71-14.44Q29.22-13.99 29.22-13.29Q29.22-12.59 28.71-12.14Q28.20-11.69 27.39-11.69Q26.58-11.69 26.07-12.14Q25.57-12.59 25.57-13.29ZM33.94-14.22L36.76-3.87L39.59-14.22L43.42-14.22L38.63 0L34.88 0L30.14-14.22L33.94-14.22ZM47.77-10.57L47.77 0L44.47 0L44.47-10.57L47.77-10.57ZM44.28-13.29L44.28-13.29Q44.28-13.99 44.79-14.44Q45.29-14.89 46.10-14.89Q46.91-14.89 47.42-14.44Q47.93-13.99 47.93-13.29Q47.93-12.59 47.42-12.14Q46.91-11.69 46.10-11.69Q45.29-11.69 44.79-12.14Q44.28-12.59 44.28-13.29ZM49.74-10.57L52.82-10.57L52.93-9.33Q54.02-10.76 55.95-10.76L55.95-10.76Q57.60-10.76 58.41-9.78Q59.23-8.79 59.26-6.81L59.26-6.81L59.26 0L55.96 0L55.96-6.67Q55.96-7.47 55.63-7.85Q55.31-8.22 54.46-8.22L54.46-8.22Q53.50-8.22 53.03-7.46L53.03-7.46L53.03 0L49.74 0L49.74-10.57ZM61.62-13.19L64.91-13.19L64.91-10.57L66.65-10.57L66.65-8.28L64.91-8.28L64.91-3.45Q64.91-2.85 65.13-2.62Q65.34-2.38 65.98-2.38L65.98-2.38Q66.46-2.38 66.80-2.44L66.80-2.44L66.80-0.09Q65.91 0.20 64.94 0.20L64.94 0.20Q63.24 0.20 62.43-0.61Q61.62-1.41 61.62-3.04L61.62-3.04L61.62-8.28L60.27-8.28L60.27-10.57L61.62-10.57L61.62-13.19ZM77.19 0L73.90 0Q73.72-0.32 73.58-0.95L73.58-0.95Q72.68 0.20 71.04 0.20L71.04 0.20Q69.55 0.20 68.51-0.71Q67.46-1.61 67.46-2.98L67.46-2.98Q67.46-4.70 68.73-5.58Q70-6.46 72.42-6.46L72.42-6.46L73.44-6.46L73.44-7.01Q73.44-8.47 72.18-8.47L72.18-8.47Q71.01-8.47 71.01-7.31L71.01-7.31L67.71-7.31Q67.71-8.85 69.02-9.80Q70.32-10.76 72.34-10.76Q74.37-10.76 75.54-9.78Q76.71-8.79 76.74-7.07L76.74-7.07L76.74-2.39Q76.76-0.94 77.19-0.17L77.19-0.17L77.19 0ZM71.84-2.15L71.84-2.15Q72.45-2.15 72.86-2.41Q73.26-2.68 73.44-3.01L73.44-3.01L73.44-4.70L72.48-4.70Q70.76-4.70 70.76-3.15L70.76-3.15Q70.76-2.71 71.06-2.43Q71.37-2.15 71.84-2.15ZM78.17-5.24L78.17-5.36Q78.17-6.96 78.70-8.19Q79.23-9.42 80.21-10.09Q81.20-10.76 82.51-10.76L82.51-10.76Q84.16-10.76 85.09-9.65L85.09-9.65L85.21-10.57L88.19-10.57L88.19-0.40Q88.19 1.00 87.54 2.03Q86.89 3.06 85.66 3.61Q84.43 4.16 82.81 4.16L82.81 4.16Q81.65 4.16 80.56 3.72Q79.47 3.28 78.90 2.58L78.90 2.58L80.27 0.64Q81.19 1.73 82.70 1.73L82.70 1.73Q84.88 1.73 84.88-0.52L84.88-0.52L84.88-0.85Q83.94 0.20 82.49 0.20L82.49 0.20Q80.56 0.20 79.37-1.28Q78.17-2.76 78.17-5.24L78.17-5.24ZM81.47-5.16L81.47-5.16Q81.47-3.86 81.96-3.10Q82.45-2.34 83.33-2.34L83.33-2.34Q84.39-2.34 84.88-3.06L84.88-3.06L84.88-7.50Q84.40-8.22 83.35-8.22L83.35-8.22Q82.47-8.22 81.97-7.44Q81.47-6.65 81.47-5.16ZM95.18 0.20L95.18 0.20Q92.74 0.20 91.24-1.25Q89.74-2.71 89.74-5.03L89.74-5.03L89.74-5.30Q89.74-6.92 90.34-8.16Q90.94-9.40 92.09-10.08Q93.24-10.76 94.82-10.76L94.82-10.76Q97.05-10.76 98.34-9.38Q99.63-8.00 99.63-5.53L99.63-5.53L99.63-4.25L93.09-4.25Q93.26-3.36 93.86-2.85Q94.45-2.34 95.40-2.34L95.40-2.34Q96.96-2.34 97.84-3.44L97.84-3.44L99.35-1.66Q98.73-0.81 97.60-0.31Q96.47 0.20 95.18 0.20ZM94.80-8.22L94.80-8.22Q93.36-8.22 93.09-6.31L93.09-6.31L96.41-6.31L96.41-6.56Q96.43-7.35 96.01-7.79Q95.59-8.22 94.80-8.22Z"></path></g></g></svg>